<svg width="145" height="52" xmlns="http://www.w3.org/2000/svg" viewBox="0 0 145.19 51.86"><path d="M136,22.56c0,5.93-4.17,9.91-11.51,9.91a22.25,22.25,0,0,1-10.26-2.65V24.24c2,1.24,5.84,3.45,10.35,3.45,3.54,0,5.75-1.41,5.75-4.34,0-2.21-1.68-3.71-6.63-4.86-6.63-1.59-9.29-5.13-9.29-9.29,0-4.78,3.1-9.2,10.79-9.2a19.54,19.54,0,0,1,8.49,2.2V7.34a17.29,17.29,0,0,0-8.49-2.74c-3.71,0-5.13,1.59-5.13,3.8s2,3.45,5.57,4.34C132.82,14.42,136,17.87,136,22.56Z" style="fill:#0088ce"></path><path d="M109.45,28.22a6.67,6.67,0,0,0,2.47-.53v2.65a7.16,7.16,0,0,1-4.68,1.77c-3.72,0-5.4-1.94-6.1-4.86a14.11,14.11,0,0,1-11.33,5.22c-8.4,0-14.86-7.26-14.86-16.2S81.41,0,89.81,0a14.38,14.38,0,0,1,11.68,5.13L103.61.35h3.81V25.21C107.42,27.43,108.12,28.22,109.45,28.22ZM101,10.79A11.35,11.35,0,0,0,91.05,5c-5.75,0-9.64,4.34-9.64,11.32s3.89,11.25,9.64,11.25A11.69,11.69,0,0,0,101,21.58Z" style="fill:#0088ce"></path><path d="M37.3,5.24a15.47,15.47,0,0,1,4.22,11.19A15.47,15.47,0,0,1,37.3,27.62C34.39,30.53,30,32.27,24,32.27H13.82V.59H24C30,.58,34.39,2.33,37.3,5.24ZM35.5,16.43a10.7,10.7,0,0,0-2.33-7.3C31.5,7.27,28.72,6,24.05,6H19.7V26.89h4.35c4.67,0,7.45-1.3,9.12-3.16A10.7,10.7,0,0,0,35.5,16.43Z" style="fill:#0088ce"></path><path d="M71.12,24.06l1.78,3.77a20.29,20.29,0,0,1-12.74,4.64c-9.73,0-15.93-6.9-15.93-16.28C44.23,6.37,51,0,59.27,0c7.87,0,13.44,5.66,13.44,12.12a14.13,14.13,0,0,1-.44,3.27H50.6c-.53,4.87,1.51,12,11.41,12A16.24,16.24,0,0,0,71.12,24.06Zm-20-12.92H66.34a3.22,3.22,0,0,0,.09-.7c0-2.92-2.38-5.75-7.07-5.75A8.23,8.23,0,0,0,51.13,11.14Z" style="fill:#0088ce"></path><path d="M7.83.59h-7L0,3s2,.3,2,3V26.82c0,2.71-1.95,3-1.95,3l.87,2.45h7Z" style="fill:#0088ce"></path><path d="M139.14,2.07V5.16h-.81V2.07h-1.24V1.45h3.29v.62Zm5.34,3.09V2.94c0-.1,0-.38,0-.38s-.08.29-.12.38l-1,2.22h-.49L142,2.94c0-.1-.14-.38-.14-.38s0,.28,0,.38V5.16h-.69V1.45H142l1.17,2.64,1.17-2.64h.83V5.16Z" style="fill:#0088ce"></path><path d="M15.18,43.35h.72l3.56,8.28H18.33l-1-2.32H13.69l-1,2.32H11.62ZM17,48.41,15.52,45l-1.45,3.41Z" style="fill:#0088ce"></path><path d="M54.75,47.49a4.21,4.21,0,0,1,4.4-4.32A5.06,5.06,0,0,1,62,44v1.14a4.18,4.18,0,0,0-2.88-1.09,3.4,3.4,0,0,0,0,6.8A4.14,4.14,0,0,0,62,49.79v1.15a5.14,5.14,0,0,1-2.88.87A4.21,4.21,0,0,1,54.75,47.49Z" style="fill:#0088ce"></path><path d="M64.75,47.49a4.4,4.4,0,1,1,4.41,4.37A4.26,4.26,0,0,1,64.75,47.49Zm7.65,0a3.26,3.26,0,1,0-3.24,3.45A3.22,3.22,0,0,0,72.4,47.49Z" style="fill:#0088ce"></path><path d="M76.74,43.35h1.08L81,50.22l3.2-6.87h1v8.28H84.18V46c0-.22,0-.7,0-.7s-.19.5-.29.7l-2.58,5.65h-.75L78,46c-.09-.2-.29-.7-.29-.7s0,.48,0,.7v5.65h-1Z" style="fill:#0088ce"></path><path d="M88.84,43.35h2.74a2.5,2.5,0,1,1,0,5H90v3.29H88.84Zm2.74,4.07a1.58,1.58,0,1,0,0-3.15H90v3.15Z" style="fill:#0088ce"></path><path d="M99.23,43.35H100l3.56,8.28h-1.13l-1-2.32H97.74l-1,2.32H95.67ZM101,48.41,99.56,45l-1.45,3.41Z" style="fill:#0088ce"></path><path d="M106.31,43.35h.63l4.93,6.17V43.35h1v8.28h-.64l-4.93-6.17v6.17h-1Z" style="fill:#0088ce"></path><path d="M118.84,48.32l-3.25-5h1.2l2.63,4.07L122,43.35h1.14l-3.24,5v3.31h-1.1Z" style="fill:#0088ce"></path><path d="M27.2,48.9c.09,1,.84,1.35,1.76,1.35.65,0,1.78-.13,1.73-1s-1.29-1-2.54-1.3-2.5-.72-2.5-2.3,1.83-2.24,3.25-2.24c1.6,0,3.05.67,3.26,2.4h-1.8c-.15-.81-.83-1-1.58-1-.5,0-1.42.12-1.42.8,0,.85,1.27,1,2.53,1.25s2.52.74,2.52,2.28c0,1.85-1.87,2.53-3.48,2.53-2,0-3.42-.88-3.45-2.71Z" style="fill:#0088ce"></path><path d="M40,49.66c0,.43.09.59.41.59a2.39,2.39,0,0,0,.42,0v1.19a4.38,4.38,0,0,1-1.09.2c-.69,0-1.19-.24-1.32-1a4,4,0,0,1-2.7,1c-1.4,0-2.67-.75-2.67-2.28,0-1.94,1.56-2.26,3-2.42,1.24-.23,2.34-.09,2.34-1.1s-.92-1.06-1.62-1.06c-1,0-1.64.39-1.71,1.24H33.29c.12-2,1.82-2.6,3.54-2.6,1.52,0,3.12.62,3.12,2.27Zm-1.72-2.17a5.86,5.86,0,0,1-2.11.47c-.74.12-1.4.39-1.4,1.3s1,1,1.58,1c.76,0,1.93-.39,1.93-1.48Z" style="fill:#0088ce"></path><path d="M42.8,48.9c.09,1,.85,1.35,1.77,1.35.65,0,1.78-.13,1.73-1s-1.3-1-2.55-1.3-2.5-.72-2.5-2.3,1.84-2.24,3.25-2.24c1.6,0,3,.67,3.26,2.4H46c-.15-.81-.83-1-1.59-1-.49,0-1.41.12-1.41.8,0,.85,1.27,1,2.53,1.25S48,47.54,48,49.08c0,1.85-1.87,2.53-3.48,2.53-2,0-3.43-.88-3.45-2.71Z" style="fill:#0088ce"></path></svg>